# xmcd
#
# Track frame offsets:
#	150
#	16325
#	30922
#	42732
#	56387
#	69777
#	84462
#	97750
#	112092
#	126747
#	141210
#	155482
#	170050
#	182150
#	195425
#	207560
#	220715
#	251115
#	272497
#	314775
#
# Disc length: 4533
#
# Revision: 1
# Processed by: cddbd v1.5.1PL0 Copyright (c) Steve Scherf et al.
# Submitted via: EasyCDDAExtractor 5.0.5.1
# Normalized: r0:DSWAP,DSETVAR1,TDELIM( - )
#
DISCID=2611b314
DTITLE=Various Artist - Best of Kent Burns Jazz
DYEAR=2001
DGENRE=Jazz
TTITLE0=Louis Armstrong and His Orchestra - Star Dust
TTITLE1=Jelly Roll Morton's Red Hot Peppers - Dead Man Blues
TTITLE2=Noble Sissle and His Orchestra - Dear Old Southland
TTITLE3=Frankie Trumbauer and His Orchestra - Singin' the Blues
TTITLE4=Louis Armstrong and His Orchestra - St. Louis Blues
TTITLE5=Duke Ellington and His Orchestra - The Mooche
TTITLE6=Fletcher Henderson and His Orchestra - Hotter Than 'Ell
TTITLE7=Benny Goodman and His Orchestra - King Porter Stomp
TTITLE8=Artie Shaw and His Orchestra - Begin the Beguine
TTITLE9=Duke Ellington and His Orchestra - Cotton Tail
TTITLE10=Count Basie and His Orchestra - Jumpin' at the Woodside
TTITLE11=Billie Holiday with Eddie Heywood and His Orchestra - Solitude
TTITLE12=Dizzy Gillespie Sextet - Groovin' High
TTITLE13=Thelonious Monk - Straight, No Chaser
TTITLE14=Sarah Vaughan and Her Trio - They Can't Take That Away from Me
TTITLE15=Dave Brubeck Quartet - Take Five (45-rpm version)
TTITLE16=Horace Silver and the Jazz Messengers - Doodlin'
TTITLE17=John Coltrane Quartet - Giant Steps
TTITLE18=Miles Davis Sextet - So What
TTITLE19=Lincoln Center Jazz Orchestra - Take the "A" Train
EXTD=LABEL =Sony Music Entertainment Inc.\nID =CK61439\nUPC =none\nCOPYRIGHT =2000
EXTT0=
EXTT1=
EXTT2=featuring Sidney Bechet
EXTT3=featuring Bix Beiderbecke
EXTT4=
EXTT5=
EXTT6=
EXTT7=
EXTT8=
EXTT9=
EXTT10=
EXTT11=with Eddie Heywood and His Orchestra
EXTT12=featuring Charlie Parker
EXTT13=
EXTT14=
EXTT15=
EXTT16=Horace Silver and the Jazz Messengers
EXTT17=
EXTT18=
EXTT19=
PLAYORDER=
